<?xml version="1.0" encoding="utf-8"?>
<!-- Generator: Adobe Illustrator 16.0.0, SVG Export Plug-In . SVG Version: 6.00 Build 0)  -->
<!DOCTYPE svg PUBLIC "-//W3C//DTD SVG 1.1//EN" "http://www.w3.org/Graphics/SVG/1.1/DTD/svg11.dtd">
<svg version="1.1" id="Layer_1" xmlns="http://www.w3.org/2000/svg" xmlns:xlink="http://www.w3.org/1999/xlink" x="0px" y="0px"
	 width="50px" height="50px" viewBox="0 0 50 50" enable-background="new 0 0 50 50" xml:space="preserve">
<circle fill="#FFFFFF" cx="24.91" cy="24.91" r="24.91"/>
<g>
	<path fill="#414042" d="M22.883,24.108c0,0,3.206-0.237,3.206-3.999c0-3.759-2.624-5.592-5.945-5.592h-6.115h-0.18H9.212v21.008
		h4.637h0.18h6.115c0,0,6.672,0.211,6.672-6.2C26.816,29.326,27.109,24.108,22.883,24.108z M14.029,18.251h5.327h0.788
		c0,0,1.485,0,1.485,2.186c0,2.185-0.874,2.502-1.865,2.502h-5.735V18.251z M19.861,31.792h-5.833V26.18h6.115
		c0,0,2.214-0.031,2.214,2.883C22.358,31.492,20.738,31.768,19.861,31.792z"/>
	<g>
		<path fill="#414042" d="M35.717,19.863c-8.078,0-8.07,8.071-8.07,8.071s-0.556,8.03,8.071,8.03c0,0,7.188,0.412,7.188-5.586
			h-3.697c0,0,0.123,2.261-3.369,2.261c0,0-3.695,0.245-3.695-3.656h10.885C43.027,28.98,44.221,19.863,35.717,19.863z
			 M39.003,26.18h-6.901c0,0,0.453-3.24,3.698-3.24C39.044,22.94,39.003,26.18,39.003,26.18z"/>
		<rect x="31.198" y="15.754" fill="#414042" width="8.665" height="2.587"/>
	</g>
</g>
</svg>
