<?xml version="1.0" encoding="utf-8"?>
<!-- Generator: Adobe Illustrator 16.0.0, SVG Export Plug-In . SVG Version: 6.00 Build 0)  -->
<!DOCTYPE svg PUBLIC "-//W3C//DTD SVG 1.1//EN" "http://www.w3.org/Graphics/SVG/1.1/DTD/svg11.dtd">
<svg version="1.1" id="Layer_1" xmlns="http://www.w3.org/2000/svg" xmlns:xlink="http://www.w3.org/1999/xlink" x="0px" y="0px"
	 width="50px" height="50px" viewBox="0 0 50 50" enable-background="new 0 0 50 50" xml:space="preserve">
<circle fill="#FFFFFF" cx="24.897" cy="24.897" r="24.897"/>
<path fill="#414042" d="M28.438,15.109c1.117-0.215,3.394,0.388,3.394,0.388l0.773-4.899c0,0-1.503-0.343-5.07-0.387
	c-3.564-0.042-5.626,1.719-6.357,3.051c-0.731,1.333-0.601,2.148-0.601,3.866c0,0.361,0,1.658,0,3.48h-3.181v4.598h3.181
	c0,7.214,0,16.587,0,16.587h6.101c0,0,0-9.499,0-16.587h4.596l0.561-4.598h-5.156c0-1.499,0-2.554,0-2.879
	C26.678,16.012,27.321,15.323,28.438,15.109z"/>
</svg>
