<?xml version="1.0" encoding="utf-8"?>
<!-- Generator: Adobe Illustrator 16.0.0, SVG Export Plug-In . SVG Version: 6.00 Build 0)  -->
<!DOCTYPE svg PUBLIC "-//W3C//DTD SVG 1.1//EN" "http://www.w3.org/Graphics/SVG/1.1/DTD/svg11.dtd">
<svg version="1.1" id="Layer_1" xmlns="http://www.w3.org/2000/svg" xmlns:xlink="http://www.w3.org/1999/xlink" x="0px" y="0px"
	 width="251.187px" height="99.648px" viewBox="0 0 251.187 99.648" enable-background="new 0 0 251.187 99.648"
	 xml:space="preserve">
<g>
	<g opacity="0.3">
		<g>
			<path fill="#414042" stroke="#414042" stroke-miterlimit="10" d="M84.345,16.553C75.166,7.37,62.939,2.315,49.917,2.315
				c-13.023,0-25.249,5.054-34.428,14.238C6.305,25.733,1.25,37.964,1.25,50.981c0,13.022,5.055,25.249,14.239,34.429
				c9.179,9.184,21.405,14.238,34.428,14.238c13.022,0,25.249-5.055,34.428-14.238C103.328,66.427,103.328,35.537,84.345,16.553z
				 M21.525,22.59c7.573-7.572,17.653-11.745,28.392-11.745c10.738,0,20.818,4.172,28.392,11.745
				c10.595,10.596,14.381,26.431,9.828,40.675L64.594,57.41L59.21,30.64l-9.37,1.831l4.511,22.307l-10.176-2.47L18.211,26.343
				C19.227,25.037,20.343,23.778,21.525,22.59z M84.063,72.111c-1.621,2.617-3.553,5.055-5.755,7.262
				c-1.173,1.173-2.432,2.284-3.758,3.314L57.308,65.444L84.063,72.111z M49.912,91.113c-10.738,0-20.819-4.168-28.392-11.74
				C9.729,67.576,6.496,49.871,13.195,34.736l52.963,52.963C61.075,89.939,55.501,91.113,49.912,91.113z"/>
		</g>
	</g>
	<g>
		<g>
			<path fill="#FFFFFF" d="M85.22,15.552C76.041,6.369,63.815,1.314,50.792,1.314c-13.023,0-25.249,5.054-34.428,14.238
				C7.18,24.732,2.125,36.963,2.125,49.98c0,13.022,5.055,25.249,14.239,34.429c9.179,9.184,21.405,14.238,34.428,14.238
				c13.022,0,25.249-5.055,34.428-14.238C104.204,65.426,104.204,34.536,85.22,15.552z M22.401,21.589
				c7.573-7.572,17.653-11.745,28.392-11.745c10.738,0,20.818,4.172,28.392,11.745c10.595,10.596,14.381,26.431,9.828,40.675
				l-23.542-5.855l-5.383-26.771l-9.37,1.831l4.511,22.307l-10.176-2.47L19.087,25.342C20.103,24.036,21.218,22.777,22.401,21.589z
				 M84.939,71.11c-1.621,2.617-3.553,5.055-5.755,7.262c-1.173,1.173-2.432,2.284-3.758,3.314L58.184,64.443L84.939,71.11z
				 M50.788,90.112c-10.738,0-20.819-4.168-28.392-11.74C10.604,66.575,7.371,48.87,14.07,33.735l52.963,52.963
				C61.951,88.938,56.376,90.112,50.788,90.112z"/>
		</g>
	</g>
	<g>
		<g>
			<path fill="#414042" d="M85.888,14.238C76.709,5.054,64.483,0,51.46,0C38.438,0,26.211,5.054,17.032,14.238
				C7.848,23.418,2.793,35.649,2.793,48.666c0,13.023,5.055,25.25,14.239,34.429c9.179,9.185,21.405,14.239,34.428,14.239
				c13.022,0,25.249-5.055,34.428-14.239C104.872,64.111,104.872,33.222,85.888,14.238z M23.069,20.275
				C30.641,12.703,40.722,8.531,51.46,8.531c10.738,0,20.818,4.172,28.391,11.745c10.595,10.596,14.381,26.432,9.828,40.675
				l-23.542-5.854l-5.384-26.771l-9.369,1.831l4.51,22.308l-10.176-2.471L19.755,24.028C20.771,22.721,21.886,21.463,23.069,20.275z
				 M85.607,69.796c-1.621,2.618-3.553,5.055-5.755,7.263c-1.173,1.172-2.432,2.283-3.758,3.314L58.852,63.129L85.607,69.796z
				 M51.455,88.799c-10.738,0-20.819-4.168-28.391-11.74C11.272,65.261,8.039,47.556,14.738,32.421l52.963,52.963
				C62.618,87.625,57.044,88.799,51.455,88.799z"/>
		</g>
	</g>
</g>
<path fill="#414042" d="M123.38,52.979l-8.98-13.812h-0.039v13.812h-2.625V26.037h2.625v12.101h0.039l8.447-12.101h3.083
	l-9.057,12.444l9.703,14.498H123.38z"/>
<path fill="#414042" d="M130.076,52.979V26.037h10.846v2.358h-8.256v9.439h7.724v2.282h-7.724v10.466h8.637v2.396H130.076z"/>
<path fill="#414042" d="M145.984,52.979V26.037h2.664v24.468h7.686v2.474H145.984z"/>
<path fill="#414042" d="M159.568,52.979V26.037h2.665v24.468h7.687v2.474H159.568z"/>
<path fill="#414042" d="M177.987,41.905v11.074h-2.588V41.905l-6.697-15.868h2.892l5.099,13.129l5.214-13.129h2.855L177.987,41.905z
	"/>
<path fill="#414042" d="M200.727,46.091c0,1.192-0.178,2.253-0.533,3.179c-0.356,0.926-0.844,1.712-1.464,2.358
	c-0.623,0.648-1.354,1.142-2.189,1.483c-0.837,0.344-1.726,0.516-2.663,0.516c-1.372,0-2.634-0.293-3.787-0.877
	c-1.154-0.583-2.087-1.355-2.797-2.32l1.635-1.865c0.584,0.837,1.32,1.484,2.209,1.94c0.889,0.457,1.789,0.685,2.701,0.685
	c1.217,0,2.238-0.43,3.064-1.293c0.823-0.863,1.236-2.094,1.236-3.691c0-0.762-0.129-1.433-0.38-2.018
	c-0.255-0.582-0.599-1.103-1.028-1.559c-0.433-0.456-0.92-0.863-1.466-1.217c-0.546-0.355-1.121-0.686-1.73-0.99
	c-0.736-0.354-1.435-0.754-2.094-1.198c-0.66-0.443-1.235-0.957-1.731-1.541c-0.495-0.584-0.895-1.274-1.198-2.074
	c-0.306-0.8-0.456-1.731-0.456-2.797c0-1.242,0.188-2.328,0.57-3.253c0.381-0.925,0.895-1.698,1.541-2.321
	c0.647-0.622,1.376-1.084,2.188-1.391c0.812-0.304,1.66-0.456,2.548-0.456c1.219,0,2.315,0.209,3.292,0.629
	c0.977,0.417,1.795,1.071,2.455,1.959l-1.636,1.865c-0.507-0.735-1.105-1.262-1.788-1.579c-0.686-0.317-1.435-0.477-2.246-0.477
	c-0.533,0-1.059,0.096-1.58,0.285c-0.518,0.191-0.981,0.489-1.388,0.895c-0.407,0.407-0.736,0.927-0.989,1.561
	c-0.254,0.633-0.381,1.382-0.381,2.245c0,0.761,0.114,1.421,0.343,1.978c0.228,0.559,0.538,1.055,0.933,1.484
	c0.393,0.433,0.849,0.813,1.368,1.144c0.521,0.329,1.061,0.633,1.617,0.913c0.711,0.354,1.415,0.761,2.112,1.217
	c0.699,0.456,1.325,0.989,1.886,1.597c0.557,0.609,1.001,1.321,1.331,2.132C200.561,44.05,200.727,45.002,200.727,46.091z"/>
<path fill="#414042" d="M205.559,52.979V26.037h10.845v2.358h-8.256v9.439h7.725v2.282h-7.725v10.466h8.637v2.396H205.559z"/>
<path fill="#414042" d="M232.996,52.979l-1.637-6.735h-8.296l-1.712,6.735h-2.701l6.848-26.942h3.615l6.659,26.942H232.996z
	 M227.326,28.434h-0.152l-3.729,15.68h7.533L227.326,28.434z"/>
<path fill="#414042" d="M244.412,41.905v11.074h-2.587V41.905l-6.698-15.868h2.893l5.099,13.129l5.212-13.129h2.856L244.412,41.905z
	"/>
<g>
	<path fill="#414042" d="M121.801,66.371c0,1.654-0.176,3.098-0.525,4.33c-0.35,1.23-0.819,2.248-1.406,3.047
		c-0.589,0.799-1.288,1.395-2.096,1.791c-0.808,0.396-1.663,0.594-2.562,0.594h-3.475V56.611h3.502c0.9,0,1.75,0.197,2.549,0.592
		c0.8,0.396,1.498,0.998,2.098,1.807c0.595,0.809,1.064,1.826,1.405,3.047C121.63,63.279,121.801,64.718,121.801,66.371z
		 M112.342,57.163V75.58h2.786c0.845,0,1.636-0.182,2.371-0.551c0.735-0.367,1.379-0.927,1.93-1.682
		c0.552-0.754,0.983-1.71,1.296-2.867c0.312-1.159,0.468-2.527,0.468-4.109c0-1.58-0.156-2.949-0.468-4.107
		c-0.313-1.158-0.745-2.114-1.296-2.867c-0.551-0.754-1.195-1.314-1.93-1.683c-0.735-0.367-1.525-0.551-2.371-0.551H112.342z"/>
	<path fill="#414042" d="M125.852,76.133V56.611h7.032v0.552h-6.425v8.575h6.038v0.55h-6.038v9.292h6.618v0.553H125.852z"/>
	<path fill="#414042" d="M144.381,71.555c0,0.81-0.115,1.526-0.347,2.15c-0.229,0.627-0.546,1.149-0.949,1.572
		c-0.404,0.423-0.87,0.744-1.392,0.966c-0.524,0.22-1.07,0.331-1.641,0.331c-0.938,0-1.77-0.208-2.496-0.621
		c-0.727-0.414-1.318-1.006-1.777-1.779l0.496-0.357c0.441,0.734,1.002,1.287,1.682,1.653c0.68,0.37,1.369,0.552,2.067,0.552
		c0.496,0,0.968-0.101,1.419-0.303c0.451-0.203,0.847-0.492,1.188-0.869c0.339-0.376,0.614-0.846,0.826-1.404
		c0.211-0.562,0.317-1.2,0.317-1.918c0-0.662-0.11-1.248-0.333-1.764c-0.218-0.516-0.508-0.971-0.866-1.365
		c-0.36-0.396-0.759-0.738-1.2-1.033s-0.883-0.552-1.322-0.773c-0.516-0.257-1.017-0.546-1.502-0.867
		c-0.488-0.322-0.916-0.699-1.283-1.131c-0.369-0.433-0.667-0.934-0.896-1.502c-0.231-0.57-0.345-1.232-0.345-1.986
		c0-0.809,0.117-1.521,0.356-2.137s0.562-1.131,0.966-1.543c0.404-0.414,0.873-0.727,1.407-0.939
		c0.532-0.211,1.093-0.316,1.681-0.316c0.754,0,1.448,0.152,2.082,0.455c0.634,0.304,1.152,0.812,1.558,1.531l-0.44,0.357
		c-0.404-0.68-0.879-1.148-1.422-1.406c-0.541-0.258-1.143-0.385-1.805-0.385c-0.459,0-0.914,0.086-1.364,0.262
		c-0.45,0.174-0.854,0.441-1.214,0.799c-0.357,0.358-0.648,0.818-0.867,1.379c-0.223,0.561-0.331,1.228-0.331,1.999
		c0,0.68,0.101,1.272,0.303,1.777c0.2,0.505,0.468,0.942,0.8,1.31c0.33,0.368,0.703,0.69,1.115,0.967
		c0.414,0.274,0.822,0.515,1.227,0.715c0.571,0.296,1.113,0.613,1.627,0.951c0.515,0.343,0.971,0.731,1.366,1.172
		c0.395,0.441,0.712,0.947,0.951,1.518S144.381,70.803,144.381,71.555z"/>
	<path fill="#414042" d="M148.324,76.133V56.611h0.606v19.521H148.324z"/>
	<path fill="#414042" d="M153.59,66.344c0,1.434,0.123,2.74,0.373,3.915c0.247,1.177,0.619,2.188,1.115,3.033
		c0.497,0.847,1.107,1.499,1.833,1.958c0.728,0.459,1.56,0.689,2.496,0.689c1.453,0,2.638-0.441,3.557-1.324v-7.969h-3.282v-0.55
		h3.887v8.767c-0.457,0.461-1.046,0.846-1.763,1.158c-0.716,0.312-1.517,0.469-2.398,0.469c-1.03,0-1.94-0.234-2.729-0.703
		c-0.792-0.469-1.463-1.145-2.013-2.026c-0.552-0.882-0.97-1.948-1.255-3.196c-0.285-1.252-0.428-2.658-0.428-4.221
		c0-1.451,0.135-2.797,0.4-4.038s0.656-2.316,1.172-3.228c0.515-0.91,1.153-1.621,1.916-2.137c0.762-0.514,1.649-0.771,2.66-0.771
		c0.736,0,1.484,0.193,2.248,0.58c0.762,0.385,1.392,1.047,1.889,1.984l-0.497,0.303c-0.458-0.827-1.015-1.42-1.666-1.777
		c-0.653-0.359-1.312-0.537-1.974-0.537c-0.938,0-1.756,0.252-2.453,0.758c-0.699,0.504-1.273,1.189-1.724,2.054
		s-0.79,1.88-1.021,3.046C153.703,63.747,153.59,65.003,153.59,66.344z"/>
	<path fill="#414042" d="M177.053,76.133l-8.216-18.804h-0.055v18.804h-0.608V56.611h0.993l8.189,18.776h0.055V56.611h0.606v19.521
		H177.053z"/>
</g>
</svg>
