<?xml version="1.0" encoding="utf-8"?>
<!-- Generator: Adobe Illustrator 16.0.0, SVG Export Plug-In . SVG Version: 6.00 Build 0)  -->
<!DOCTYPE svg PUBLIC "-//W3C//DTD SVG 1.1//EN" "http://www.w3.org/Graphics/SVG/1.1/DTD/svg11.dtd">
<svg version="1.1" id="Layer_1" xmlns="http://www.w3.org/2000/svg" xmlns:xlink="http://www.w3.org/1999/xlink" x="0px" y="0px"
	 width="50px" height="50px" viewBox="0 0 50 50" enable-background="new 0 0 50 50" xml:space="preserve">
<circle fill="#FFFFFF" cx="25.07" cy="24.737" r="24.93"/>
<g>
	<path fill="#414042" d="M19.108,37.71V20.966h-5.564v16.746L19.108,37.71L19.108,37.71z M16.326,18.682
		c1.941,0,3.148-1.288,3.148-2.894c-0.036-1.643-1.208-2.894-3.111-2.894c-1.903,0-3.148,1.25-3.148,2.894
		c0,1.605,1.208,2.894,3.075,2.894H16.326L16.326,18.682z"/>
	<path fill="#414042" d="M22.188,37.71h5.564v-9.351c0-0.5,0.036-1.002,0.186-1.356c0.401-1.001,1.317-2.037,2.854-2.037
		c2.014,0,2.818,1.536,2.818,3.788v8.956h5.564v-9.601c0-5.143-2.746-7.535-6.406-7.535c-3.004,0-4.32,1.678-5.054,2.821h0.035
		v-2.429h-5.562C22.261,22.538,22.188,37.71,22.188,37.71L22.188,37.71z"/>
</g>
</svg>
