<?xml version="1.0" encoding="utf-8"?>
<!-- Generator: Adobe Illustrator 16.0.0, SVG Export Plug-In . SVG Version: 6.00 Build 0)  -->
<!DOCTYPE svg PUBLIC "-//W3C//DTD SVG 1.1//EN" "http://www.w3.org/Graphics/SVG/1.1/DTD/svg11.dtd">
<svg version="1.1" id="Layer_1" xmlns="http://www.w3.org/2000/svg" xmlns:xlink="http://www.w3.org/1999/xlink" x="0px" y="0px"
	 width="50px" height="50px" viewBox="0 0 50 50" enable-background="new 0 0 50 50" xml:space="preserve">
<circle fill="#FFFFFF" cx="25" cy="25.052" r="24.888"/>
<g>
	<path fill="#414042" d="M37.288,18.549c-0.868,0.385-1.802,0.646-2.781,0.762c1-0.598,1.767-1.548,2.13-2.678
		c-0.937,0.555-1.973,0.958-3.077,1.175c-0.884-0.941-2.141-1.529-3.531-1.529c-2.674,0-4.843,2.167-4.843,4.841
		c0,0.38,0.042,0.75,0.123,1.104c-4.023-0.202-7.591-2.13-9.979-5.059c-0.417,0.715-0.655,1.547-0.655,2.435
		c0,1.68,0.854,3.162,2.154,4.031c-0.794-0.025-1.54-0.243-2.193-0.606c0,0.021,0,0.041,0,0.062c0,2.346,1.669,4.303,3.884,4.748
		c-0.406,0.11-0.834,0.169-1.275,0.169c-0.312,0-0.615-0.03-0.911-0.086c0.616,1.923,2.404,3.322,4.523,3.363
		c-1.658,1.299-3.745,2.072-6.014,2.072c-0.391,0-0.775-0.022-1.154-0.066c2.143,1.372,4.688,2.176,7.422,2.176
		c8.905,0,13.775-7.377,13.775-13.777c0-0.21-0.004-0.419-0.014-0.627C35.819,20.374,36.64,19.521,37.288,18.549z"/>
</g>
</svg>
