<?xml version="1.0" encoding="utf-8"?>
<!-- Generator: Adobe Illustrator 16.0.0, SVG Export Plug-In . SVG Version: 6.00 Build 0)  -->
<!DOCTYPE svg PUBLIC "-//W3C//DTD SVG 1.1//EN" "http://www.w3.org/Graphics/SVG/1.1/DTD/svg11.dtd">
<svg version="1.1" id="Layer_1" xmlns="http://www.w3.org/2000/svg" xmlns:xlink="http://www.w3.org/1999/xlink" x="0px" y="0px"
	 width="50px" height="50px" viewBox="0 0 50 50" enable-background="new 0 0 50 50" xml:space="preserve">
<circle fill="#FFFFFF" cx="24.91" cy="24.91" r="24.91"/>
<path fill-rule="evenodd" clip-rule="evenodd" fill="#414042" d="M37.469,19.646c0.205-1.149,0.2-2.331-0.51-3.225
	c-0.989-1.253-3.097-1.299-4.541-1.078c-1.175,0.179-5.147,1.932-6.499,6.128c2.395-0.182,3.65,0.173,3.42,2.81
	c-0.097,1.104-0.654,2.313-1.276,3.471c-0.719,1.335-2.066,3.958-3.833,2.068c-1.591-1.701-1.471-4.957-1.835-7.124
	c-0.203-1.216-0.417-2.732-0.816-3.983c-0.342-1.075-1.131-2.372-2.093-2.653c-1.035-0.304-2.312,0.17-3.063,0.613
	c-2.391,1.405-4.212,3.403-6.281,5.053v0.154c0.41,0.392,0.521,1.034,1.124,1.123c1.424,0.209,2.781-1.328,3.727,0.271
	c0.576,0.977,0.756,2.048,1.124,3.099c0.493,1.403,0.873,2.931,1.276,4.543c0.681,2.731,1.52,6.813,3.881,7.812
	c1.205,0.511,3.015-0.173,3.931-0.716c2.483-1.471,4.417-3.6,6.073-5.767C35.064,27.118,37.153,21.307,37.469,19.646z"/>
</svg>
